<svg width="24" height="24" viewBox="0 0 24 24" fill="none" xmlns="http://www.w3.org/2000/svg">
<rect x="4" y="6" width="16" height="12" rx="2.8" stroke="#1A3356" stroke-width="1.5"/>
<path d="M8.45 9.4C8.11863 9.15147 7.64853 9.21863 7.4 9.55C7.15147 9.88137 7.21863 10.3515 7.55 10.6L8.45 9.4ZM16.45 10.6C16.7814 10.3515 16.8485 9.88137 16.6 9.55C16.3515 9.21863 15.8814 9.15147 15.55 9.4L16.45 10.6ZM7.55 10.6L10.95 13.15L11.85 11.95L8.45 9.4L7.55 10.6ZM13.05 13.15L16.45 10.6L15.55 9.4L12.15 11.95L13.05 13.15ZM10.95 13.15C11.5722 13.6167 12.4278 13.6167 13.05 13.15L12.15 11.95C12.0611 12.0167 11.9389 12.0167 11.85 11.95L10.95 13.15Z" fill="#1A3356"/>
</svg>
