<svg width="19" height="19" viewBox="0 0 19 19" fill="none" xmlns="http://www.w3.org/2000/svg">
<path d="M18.25 6C18.25 5.58579 17.9142 5.25 17.5 5.25C17.0858 5.25 16.75 5.58579 16.75 6H18.25ZM12.5 1.75C12.9142 1.75 13.25 1.41421 13.25 1C13.25 0.585786 12.9142 0.25 12.5 0.25V1.75ZM16.75 6V15.34H18.25V6H16.75ZM14.7 17.39H4.3V18.89H14.7V17.39ZM2.25 15.34V3.8H0.75V15.34H2.25ZM4.3 1.75H12.5V0.25H4.3V1.75ZM4.3 17.39C3.16782 17.39 2.25 16.4722 2.25 15.34H0.75C0.75 17.3006 2.33939 18.89 4.3 18.89V17.39ZM16.75 15.34C16.75 16.4722 15.8322 17.39 14.7 17.39V18.89C16.6606 18.89 18.25 17.3006 18.25 15.34H16.75ZM2.25 3.8C2.25 2.66781 3.16782 1.75 4.3 1.75V0.25C2.33939 0.25 0.75 1.83939 0.75 3.8H2.25Z" fill="#1A3356"/>
<path d="M17.9337 4.91013L13.5899 0.566329L12.5292 1.62699L16.873 5.97079L17.9337 4.91013ZM11.75 1.32843V5.67223H13.25V1.32843H11.75ZM12.8278 6.75H17.1716V5.25H12.8278V6.75ZM11.75 5.67223C11.75 6.26746 12.2325 6.75 12.8278 6.75V5.25C13.061 5.25 13.25 5.43904 13.25 5.67223H11.75ZM13.5899 0.566329C12.9109 -0.112633 11.75 0.368242 11.75 1.32843H13.25C13.25 1.70459 12.7952 1.89298 12.5292 1.62699L13.5899 0.566329ZM16.873 5.97079C16.607 5.7048 16.7954 5.25 17.1716 5.25V6.75C18.1318 6.75 18.6126 5.58909 17.9337 4.91013L16.873 5.97079Z" fill="#1A3356"/>
<line x1="7.25" y1="13.25" x2="11.75" y2="13.25" stroke="#1A3356" stroke-width="1.5" stroke-linecap="round"/>
<line x1="6.25" y1="10.25" x2="12.75" y2="10.25" stroke="#1A3356" stroke-width="1.5" stroke-linecap="round"/>
</svg>
