<svg width="24" height="24" viewBox="0 0 24 24" fill="none" xmlns="http://www.w3.org/2000/svg">
<path d="M20.75 8C20.75 7.58579 20.4142 7.25 20 7.25C19.5858 7.25 19.25 7.58579 19.25 8H20.75ZM15 3.75C15.4142 3.75 15.75 3.41421 15.75 3C15.75 2.58579 15.4142 2.25 15 2.25V3.75ZM19.25 8V17.34H20.75V8H19.25ZM17.2 19.39H6.8V20.89H17.2V19.39ZM4.75 17.34V5.8H3.25V17.34H4.75ZM6.8 3.75H15V2.25H6.8V3.75ZM6.8 19.39C5.66782 19.39 4.75 18.4722 4.75 17.34H3.25C3.25 19.3006 4.83939 20.89 6.8 20.89V19.39ZM19.25 17.34C19.25 18.4722 18.3322 19.39 17.2 19.39V20.89C19.1606 20.89 20.75 19.3006 20.75 17.34H19.25ZM4.75 5.8C4.75 4.66781 5.66782 3.75 6.8 3.75V2.25C4.83939 2.25 3.25 3.83939 3.25 5.8H4.75Z" fill="#1A3356"/>
<path d="M20.4337 6.91013L16.0899 2.56633L15.0292 3.62699L19.373 7.97079L20.4337 6.91013ZM14.25 3.32843V7.67223H15.75V3.32843H14.25ZM15.3278 8.75H19.6716V7.25H15.3278V8.75ZM14.25 7.67223C14.25 8.26746 14.7325 8.75 15.3278 8.75V7.25C15.561 7.25 15.75 7.43904 15.75 7.67223H14.25ZM16.0899 2.56633C15.4109 1.88737 14.25 2.36824 14.25 3.32843H15.75C15.75 3.70459 15.2952 3.89298 15.0292 3.62699L16.0899 2.56633ZM19.373 7.97079C19.107 7.7048 19.2954 7.25 19.6716 7.25V8.75C20.6318 8.75 21.1126 7.58909 20.4337 6.91013L19.373 7.97079Z" fill="#1A3356"/>
<line x1="9.75" y1="15.25" x2="14.25" y2="15.25" stroke="#1A3356" stroke-width="1.5" stroke-linecap="round"/>
<line x1="8.75" y1="12.25" x2="15.25" y2="12.25" stroke="#1A3356" stroke-width="1.5" stroke-linecap="round"/>
</svg>
