<svg width="18" height="19" viewBox="0 0 18 19" fill="none" xmlns="http://www.w3.org/2000/svg">
<path d="M9 5.73373V10.6272L12 12.0952" stroke="#1A3356" stroke-width="1.5" stroke-linecap="round" stroke-linejoin="round"/>
<path d="M3.54869 3.32962L3.91639 3.9833L3.54869 3.32962ZM3.54869 15.1969L3.181 15.8506L3.54869 15.1969ZM11.4513 16.8844L11.0836 16.2307L11.4513 16.8844ZM6.54869 16.8844L6.91639 16.2307L6.54869 16.8844ZM14.4513 15.1969L14.819 15.8506L14.4513 15.1969ZM14.4513 3.32962L14.0836 3.9833L14.4513 3.32962ZM11.4513 1.64212L11.819 0.988441V0.988441L11.4513 1.64212ZM6.54869 1.64212L6.181 0.988441V0.988441L6.54869 1.64212ZM11.0836 2.2958L14.0836 3.9833L14.819 2.67594L11.819 0.988441L11.0836 2.2958ZM16.25 7.6875V10.839H17.75V7.6875H16.25ZM14.0836 14.5432L11.0836 16.2307L11.819 17.5381L14.819 15.8506L14.0836 14.5432ZM6.91639 16.2307L3.91639 14.5432L3.181 15.8506L6.181 17.5381L6.91639 16.2307ZM1.75 10.839V7.6875H0.25V10.839H1.75ZM3.91639 3.9833L6.91639 2.2958L6.181 0.988441L3.181 2.67594L3.91639 3.9833ZM1.75 7.6875C1.75 6.15209 2.57816 4.73606 3.91639 3.9833L3.181 2.67594C1.37046 3.69437 0.25 5.61018 0.25 7.6875H1.75ZM3.91639 14.5432C2.57816 13.7905 1.75 12.3744 1.75 10.839H0.25C0.25 12.9163 1.37046 14.8322 3.181 15.8506L3.91639 14.5432ZM11.0836 16.2307C9.78985 16.9585 8.21015 16.9585 6.91639 16.2307L6.181 17.5381C7.93138 18.5227 10.0686 18.5227 11.819 17.5381L11.0836 16.2307ZM16.25 10.839C16.25 12.3744 15.4218 13.7905 14.0836 14.5432L14.819 15.8506C16.6295 14.8322 17.75 12.9163 17.75 10.839H16.25ZM14.0836 3.9833C15.4218 4.73606 16.25 6.15209 16.25 7.6875H17.75C17.75 5.61018 16.6295 3.69437 14.819 2.67594L14.0836 3.9833ZM11.819 0.988441C10.0686 0.00385308 7.93138 0.00385314 6.181 0.988441L6.91639 2.2958C8.21015 1.56807 9.78985 1.56807 11.0836 2.2958L11.819 0.988441Z" fill="#1A3356"/>
</svg>
