<svg width="24" height="24" viewBox="0 0 24 24" fill="none" xmlns="http://www.w3.org/2000/svg">
<path d="M12 8.2793V13.1727L15 14.6407" stroke="#1A3356" stroke-width="1.5" stroke-linecap="round" stroke-linejoin="round"/>
<path d="M6.54869 5.87503L6.91639 6.52871L6.54869 5.87503ZM6.54869 17.7423L6.181 18.396L6.54869 17.7423ZM14.4513 19.4298L14.0836 18.7761L14.4513 19.4298ZM9.54869 19.4298L9.91639 18.7761L9.54869 19.4298ZM17.4513 17.7423L17.819 18.396L17.4513 17.7423ZM17.4513 5.87503L17.0836 6.52871L17.4513 5.87503ZM14.4513 4.18753L14.819 3.53385V3.53385L14.4513 4.18753ZM9.54869 4.18753L9.181 3.53385V3.53385L9.54869 4.18753ZM14.0836 4.84121L17.0836 6.52871L17.819 5.22135L14.819 3.53385L14.0836 4.84121ZM19.25 10.2329V13.3844H20.75V10.2329H19.25ZM17.0836 17.0886L14.0836 18.7761L14.819 20.0835L17.819 18.396L17.0836 17.0886ZM9.91639 18.7761L6.91639 17.0886L6.181 18.396L9.181 20.0835L9.91639 18.7761ZM4.75 13.3844V10.2329H3.25V13.3844H4.75ZM6.91639 6.52871L9.91639 4.84121L9.181 3.53385L6.181 5.22135L6.91639 6.52871ZM4.75 10.2329C4.75 8.6975 5.57816 7.28147 6.91639 6.52871L6.181 5.22135C4.37046 6.23978 3.25 8.15559 3.25 10.2329H4.75ZM6.91639 17.0886C5.57816 16.3359 4.75 14.9198 4.75 13.3844H3.25C3.25 15.4618 4.37046 17.3776 6.181 18.396L6.91639 17.0886ZM14.0836 18.7761C12.7899 19.5039 11.2101 19.5039 9.91639 18.7761L9.181 20.0835C10.9314 21.0681 13.0686 21.0681 14.819 20.0835L14.0836 18.7761ZM19.25 13.3844C19.25 14.9198 18.4218 16.3359 17.0836 17.0886L17.819 18.396C19.6295 17.3776 20.75 15.4618 20.75 13.3844H19.25ZM17.0836 6.52871C18.4218 7.28147 19.25 8.6975 19.25 10.2329H20.75C20.75 8.15559 19.6295 6.23978 17.819 5.22135L17.0836 6.52871ZM14.819 3.53385C13.0686 2.54926 10.9314 2.54926 9.181 3.53385L9.91639 4.84121C11.2101 4.11348 12.7899 4.11348 14.0836 4.84121L14.819 3.53385Z" fill="#1A3356"/>
</svg>
